<svg width="24" height="24" viewBox="0 0 24 24" fill="none" xmlns="http://www.w3.org/2000/svg">
<path d="M22.0575 6.94539C21.938 6.50142 21.7039 6.09662 21.3788 5.77152C21.0537 5.44641 20.6489 5.21239 20.205 5.09289C18.57 4.65039 12 4.65039 12 4.65039C12 4.65039 5.42995 4.65039 3.79495 5.09289C3.35098 5.21239 2.94619 5.44641 2.62108 5.77152C2.29597 6.09662 2.06196 6.50142 1.94245 6.94539C1.63716 8.61284 1.48901 10.3053 1.49995 12.0004C1.48901 13.6955 1.63716 15.3879 1.94245 17.0554C2.06196 17.4994 2.29597 17.9042 2.62108 18.2293C2.94619 18.5544 3.35098 18.7884 3.79495 18.9079C5.42995 19.3504 12 19.3504 12 19.3504C12 19.3504 18.57 19.3504 20.205 18.9079C20.6489 18.7884 21.0537 18.5544 21.3788 18.2293C21.7039 17.9042 21.938 17.4994 22.0575 17.0554C22.3627 15.3879 22.5109 13.6955 22.5 12.0004C22.5109 10.3053 22.3627 8.61284 22.0575 6.94539V6.94539ZM9.89995 15.1504V8.85039L15.3525 12.0004L9.89995 15.1504Z" fill="white"/>
</svg>
